<svg xmlns="http://www.w3.org/2000/svg" viewBox="0 0 1200 675"><defs><linearGradient id="bg" x1="0" y1="0" x2="1" y2="1"><stop offset="0" stop-color="#0a1030"/><stop offset="1" stop-color="#231041"/></linearGradient><linearGradient id="g" x1="0" y1="0" x2="1" y2="1"><stop offset="0" stop-color="#5fa1ee"/><stop offset="1" stop-color="#b364c2"/></linearGradient></defs><rect width="1200" height="675" fill="url(#bg)"/><line x1="703" y1="194" x2="848" y2="89" stroke="#5fa1ee" stroke-width="0.8" opacity="0.25"/><line x1="232" y1="414" x2="158" y2="559" stroke="#5fa1ee" stroke-width="0.8" opacity="0.25"/><line x1="915" y1="361" x2="993" y2="504" stroke="#5fa1ee" stroke-width="0.8" opacity="0.25"/><line x1="548" y1="224" x2="539" y2="123" stroke="#5fa1ee" stroke-width="0.8" opacity="0.25"/><line x1="1053" y1="391" x2="959" y2="334" stroke="#5fa1ee" stroke-width="0.8" opacity="0.25"/><circle cx="703" cy="194" r="1" fill="#bcd6f7" opacity="0.86"/><circle cx="848" cy="89" r="2" fill="#bcd6f7" opacity="0.40"/><circle cx="188" cy="588" r="1" fill="#bcd6f7" opacity="0.60"/><circle cx="232" cy="414" r="1.5" fill="#bcd6f7" opacity="0.76"/><circle cx="158" cy="559" r="1.5" fill="#bcd6f7" opacity="0.74"/><circle cx="479" cy="78" r="2.5" fill="#bcd6f7" opacity="0.53"/><circle cx="216" cy="484" r="2.5" fill="#bcd6f7" opacity="0.35"/><circle cx="896" cy="111" r="2.5" fill="#bcd6f7" opacity="0.54"/><circle cx="532" cy="132" r="2" fill="#bcd6f7" opacity="0.83"/><circle cx="909" cy="100" r="2.5" fill="#bcd6f7" opacity="0.82"/><circle cx="293" cy="268" r="2" fill="#bcd6f7" opacity="0.72"/><circle cx="166" cy="630" r="2" fill="#bcd6f7" opacity="0.71"/><circle cx="852" cy="90" r="2.5" fill="#bcd6f7" opacity="0.87"/><circle cx="492" cy="87" r="1.5" fill="#bcd6f7" opacity="0.35"/><circle cx="312" cy="336" r="1.5" fill="#bcd6f7" opacity="0.44"/><circle cx="898" cy="187" r="1.5" fill="#bcd6f7" opacity="0.31"/><circle cx="1147" cy="160" r="1.5" fill="#bcd6f7" opacity="0.46"/><circle cx="671" cy="613" r="1" fill="#bcd6f7" opacity="0.39"/><circle cx="410" cy="145" r="2" fill="#bcd6f7" opacity="0.67"/><circle cx="424" cy="421" r="2" fill="#bcd6f7" opacity="0.87"/><circle cx="239" cy="600" r="1" fill="#bcd6f7" opacity="0.57"/><circle cx="168" cy="617" r="2.5" fill="#bcd6f7" opacity="0.54"/><circle cx="162" cy="250" r="2.5" fill="#bcd6f7" opacity="0.36"/><circle cx="1056" cy="584" r="2.5" fill="#bcd6f7" opacity="0.34"/><circle cx="915" cy="361" r="1" fill="#bcd6f7" opacity="0.89"/><circle cx="993" cy="504" r="2.5" fill="#bcd6f7" opacity="0.40"/><circle cx="780" cy="346" r="2" fill="#bcd6f7" opacity="0.66"/><circle cx="548" cy="224" r="1" fill="#bcd6f7" opacity="0.30"/><circle cx="539" cy="123" r="1.5" fill="#bcd6f7" opacity="0.62"/><circle cx="654" cy="577" r="2" fill="#bcd6f7" opacity="0.67"/><circle cx="1053" cy="391" r="1" fill="#bcd6f7" opacity="0.82"/><circle cx="959" cy="334" r="2.5" fill="#bcd6f7" opacity="0.39"/><circle cx="189" cy="160" r="2" fill="#bcd6f7" opacity="0.87"/><circle cx="1088" cy="468" r="2" fill="#bcd6f7" opacity="0.58"/><circle cx="377" cy="390" r="1" fill="#bcd6f7" opacity="0.81"/><circle cx="351" cy="540" r="2.5" fill="#bcd6f7" opacity="0.59"/><circle cx="903" cy="80" r="2" fill="#bcd6f7" opacity="0.35"/><circle cx="198" cy="611" r="1" fill="#bcd6f7" opacity="0.75"/><circle cx="682" cy="388" r="2" fill="#bcd6f7" opacity="0.59"/><circle cx="757" cy="548" r="1.5" fill="#bcd6f7" opacity="0.61"/><circle cx="974" cy="110" r="1.5" fill="#bcd6f7" opacity="0.87"/><circle cx="231" cy="316" r="2" fill="#bcd6f7" opacity="0.39"/><circle cx="1010" cy="106" r="1" fill="#bcd6f7" opacity="0.75"/><circle cx="164" cy="357" r="2" fill="#bcd6f7" opacity="0.89"/><circle cx="952" cy="331" r="1" fill="#bcd6f7" opacity="0.72"/><circle cx="830" cy="395" r="2" fill="#bcd6f7" opacity="0.61"/><g transform="translate(200.31,143.46) scale(0.4600)" ><path d="M753.69-730.2A281.34,281.34,0,0,1,731.2-619.68a284.61,284.61,0,0,1-13.8,27.9,283.23,283.23,0,0,1-78.15,88.36C631.8-497.91,624-492.8,616.07-488a280.56,280.56,0,0,1-144.33,39.76A280.41,280.41,0,0,1,332.46-485.1a147.4,147.4,0,0,1,65.19-88.18,172.46,172.46,0,0,0,74.09,16.64,172.45,172.45,0,0,0,77.34-18.22,173.7,173.7,0,0,0,25.31-15.44,173.93,173.93,0,0,0,63-88.24,171.37,171.37,0,0,0,6.25-27.86,174.75,174.75,0,0,0,1.68-23.8A173.58,173.58,0,0,0,471.74-903.79,173.57,173.57,0,0,0,298.17-730.2a175.48,175.48,0,0,0,2.17,27.4,310.93,310.93,0,0,0-85.69,88.48A280.75,280.75,0,0,1,189.8-730.2v-282H471.74a281.11,281.11,0,0,1,199.38,82.58A281.09,281.09,0,0,1,753.69-730.2Z" transform="translate(-189.8 1012.16)" fill="url(#g)"/><path d="M730-561.5a311.07,311.07,0,0,1-83.93,85.81c-.87.61-1.77,1.19-2.66,1.78a174.86,174.86,0,0,1,1.9,25.64A173.58,173.58,0,0,1,471.74-274.69,173.58,173.58,0,0,1,298.17-448.27,173.57,173.57,0,0,1,471.74-621.84a172.84,172.84,0,0,1,75.74,17.37c.44-.26.89-.49,1.33-.76A147.45,147.45,0,0,0,613.53-692a280.55,280.55,0,0,0-141.79-38.21h0C316-730.21,189.8-604,189.8-448.27v282H471.74c155.72,0,282-126.23,282-281.95h0A280.9,280.9,0,0,0,730-561.5Z" transform="translate(-189.8 1012.16)" fill="url(#g)"/></g></svg>